<?xml version="1.0" encoding="UTF-8" standalone="no"?><!DOCTYPE svg PUBLIC "-//W3C//DTD SVG 1.1//EN" "http://www.w3.org/Graphics/SVG/1.1/DTD/svg11.dtd"><svg width="100%" height="100%" viewBox="0 0 570 720" version="1.1" xmlns="http://www.w3.org/2000/svg" xmlns:xlink="http://www.w3.org/1999/xlink" xml:space="preserve" xmlns:serif="http://www.serif.com/" style="fill-rule:evenodd;clip-rule:evenodd;stroke-linecap:round;stroke-linejoin:round;stroke-miterlimit:1.5;"><path d="M266.998,153.531c-4.425,-5.935 -9.837,-11.29 -16.191,-15.809c-32.311,-22.975 -149.915,-17.216 -149.915,-17.216c0,-0 33.177,112.974 65.487,135.949" style="fill:none;stroke:#000;stroke-width:30px;"/><path d="M279.918,235.869c-16.086,-24.599 -17.758,-57.249 -1.582,-84.088c22.193,-36.823 141.636,-81.966 141.636,-81.966c-0,-0 15.874,126.698 -6.319,163.521c-5.626,9.336 -12.883,17.09 -21.187,23.119" style="fill:none;stroke:#000;stroke-width:30px;stroke-linecap:butt;"/><path d="M257.011,219.775c-80.297,0.003 -151.338,52.027 -175.578,128.578c-0.441,1.393 -0.882,2.784 -1.321,4.171c-19.848,62.681 -12.261,130.832 20.885,187.614c3.655,6.262 7.343,12.579 11.005,18.852c32.966,56.473 93.44,91.195 158.831,91.195l28.678,0c65.21,0 125.545,-34.531 158.575,-90.757c3.524,-5.999 7.073,-12.039 10.592,-18.031c33.351,-56.771 41.098,-125.011 21.322,-187.814c-0.519,-1.646 -1.039,-3.297 -1.56,-4.952c-24.151,-76.696 -95.267,-128.859 -175.677,-128.857c-18.422,0 -37.333,0.001 -55.752,0.001Zm0.001,30c18.419,-0 37.33,-0.001 55.752,-0.001c67.312,-0.002 126.844,43.664 147.061,107.868c0,-0 1.56,4.952 1.56,4.952c17.227,54.708 10.479,114.153 -18.573,163.608c-3.52,5.991 -7.068,12.031 -10.593,18.031c-27.642,47.054 -78.135,75.952 -132.708,75.952c0,0 -28.678,0 -28.678,0c-54.725,0 -105.334,-29.058 -132.923,-76.319c-3.661,-6.273 -7.349,-12.59 -11.005,-18.852c-28.874,-49.464 -35.482,-108.831 -18.193,-163.433c0.44,-1.388 0.88,-2.779 1.321,-4.172c20.292,-64.082 79.762,-107.632 146.979,-107.634Z"/></svg>