<?xml version="1.0" encoding="UTF-8" standalone="no"?>
<!DOCTYPE svg PUBLIC "-//W3C//DTD SVG 1.1//EN" "http://www.w3.org/Graphics/SVG/1.1/DTD/svg11.dtd">
<svg width="100%" height="100%" viewBox="0 0 2400 800" version="1.1" xmlns="http://www.w3.org/2000/svg" xmlns:xlink="http://www.w3.org/1999/xlink" xml:space="preserve" xmlns:serif="http://www.serif.com/" style="fill-rule:evenodd;clip-rule:evenodd;stroke-linecap:round;stroke-linejoin:round;stroke-miterlimit:1.5;">
    <g transform="matrix(1,0,0,1,-400,-200)">
        <g transform="matrix(0.818939,0,0,0.818939,514.762,259.945)">
            <path d="M283.582,163.12C278.178,155.873 271.571,149.334 263.811,143.816C224.357,115.762 80.752,122.793 80.752,122.793C80.752,122.793 121.263,260.746 160.716,288.8" style="fill:none;stroke:black;stroke-width:36.63px;"/>
        </g>
        <g transform="matrix(0.823849,0,0,0.823849,544.324,267.389)">
            <path d="M261.692,253.056C242.166,223.197 240.136,183.566 259.771,150.988C286.709,106.292 431.691,51.497 431.691,51.497C431.691,51.497 450.959,205.285 424.021,249.982C417.191,261.313 408.383,270.726 398.304,278.043" style="fill:none;stroke:black;stroke-width:36.41px;stroke-linecap:butt;"/>
        </g>
        <g transform="matrix(1,0,0,1,478.113,253.592)">
            <path d="M258.899,206.183C178.602,206.186 107.56,258.21 83.32,334.761C82.879,336.154 82.439,337.545 81.999,338.932C62.151,401.613 69.738,469.764 102.884,526.546C106.54,532.808 110.227,539.125 113.889,545.398C146.856,601.871 207.329,636.593 272.721,636.593L301.399,636.593C366.609,636.593 426.943,602.062 459.973,545.836C463.498,539.837 467.046,533.797 470.566,527.805C503.917,471.034 511.663,402.794 491.887,339.991C491.369,338.345 490.849,336.694 490.328,335.039C466.176,258.343 395.06,206.18 314.651,206.182C296.228,206.182 277.317,206.183 258.899,206.183ZM258.9,236.183C277.318,236.183 296.229,236.182 314.652,236.182C381.963,236.18 441.495,279.846 461.713,344.05C461.713,344.05 463.272,349.002 463.272,349.002C480.5,403.71 473.751,463.155 444.699,512.61C441.179,518.601 437.631,524.641 434.107,530.64C406.464,577.695 355.972,606.593 301.399,606.593C301.399,606.593 272.721,606.593 272.721,606.593C217.996,606.593 167.387,577.535 139.798,530.274C136.136,524.001 132.448,517.683 128.793,511.422C99.919,461.958 93.31,402.591 110.6,347.989C111.039,346.601 111.48,345.21 111.921,343.817C132.212,279.735 191.682,236.185 258.9,236.183Z"/>
        </g>
        <g transform="matrix(1,0,0,1,449.232,215.777)">
            <text x="635.509px" y="565.735px" style="font-family:'Inter-Regular', 'Inter';font-size:400px;">Berr<tspan x="1433.24px " y="565.735px ">y</tspan>OS</text>
        </g>
    </g>
</svg>
